<svg width="56" height="56" viewBox="0 0 56 56" fill="none" xmlns="http://www.w3.org/2000/svg">
<path fill-rule="evenodd" clip-rule="evenodd" d="M39.9 54.6001C39.514 54.6001 39.2 54.2861 39.2 53.9001C39.2 53.5141 39.514 53.2001 39.9 53.2001C40.2859 53.2001 40.5999 53.5141 40.5999 53.9001C40.5999 54.2861 40.2859 54.6001 39.9 54.6001Z" fill="#CACAFB"/>
<path fill-rule="evenodd" clip-rule="evenodd" d="M42.7 4.20005C42.314 4.20005 42 3.88603 42 3.50005C42 3.11404 42.314 2.80005 42.7 2.80005C43.086 2.80005 43.4 3.11404 43.4 3.50005C43.4 3.88603 43.086 4.20005 42.7 4.20005Z" fill="#CACAFB"/>
<path fill-rule="evenodd" clip-rule="evenodd" d="M18.9 54.6001C18.514 54.6001 18.2 54.2861 18.2 53.9001C18.2 53.5141 18.514 53.2001 18.9 53.2001C19.2859 53.2001 19.6 53.5141 19.6 53.9001C19.6 54.2861 19.2859 54.6001 18.9 54.6001Z" fill="#CACAFB"/>
<path d="M31.4953 6.91841C31.4549 6.57028 31.159 6.30005 30.8 6.30005C30.4134 6.30005 30.1 6.61345 30.1 7.00005V9.80005L30.1047 9.88168C30.1452 10.2298 30.441 10.5 30.8 10.5C31.1866 10.5 31.5 10.1866 31.5 9.80005V7.00005L31.4953 6.91841Z" fill="#E1000F"/>
<path d="M14 24.5C14 24.1135 13.6866 23.8001 13.3 23.8001H9.10002L9.01839 23.8048C8.67025 23.8452 8.40002 24.1411 8.40002 24.5C8.40002 24.8866 8.71343 25.2001 9.10002 25.2001H13.3L13.3817 25.1953C13.7298 25.1549 14 24.859 14 24.5Z" fill="#E1000F"/>
<path fill-rule="evenodd" clip-rule="evenodd" d="M28 23.8001C26.8402 23.8001 25.9 24.7403 25.9 25.9001C25.9 27.0598 26.8402 28 28 28C29.1598 28 30.1 27.0598 30.1 25.9001C30.1 24.7403 29.1598 23.8001 28 23.8001ZM28 25.2001C28.3866 25.2001 28.7 25.5135 28.7 25.9001C28.7 26.2866 28.3866 26.6 28 26.6C27.6134 26.6 27.3 26.2866 27.3 25.9001C27.3 25.5135 27.6134 25.2001 28 25.2001Z" fill="#E1000F"/>
<path d="M13.3 26.6C13.6866 26.6 14 26.9135 14 27.3001C14 27.659 13.7298 27.9549 13.3817 27.9953L13.3 28H9.10002C8.71343 28 8.40002 27.6866 8.40002 27.3001C8.40002 26.9411 8.67025 26.6452 9.01839 26.6048L9.10002 26.6H13.3Z" fill="#E1000F"/>
<path d="M22.4 24.5C22.4 24.1135 22.0866 23.8001 21.7 23.8001H17.5L17.4184 23.8048C17.0703 23.8452 16.8 24.1411 16.8 24.5C16.8 24.8866 17.1134 25.2001 17.5 25.2001H21.7L21.7817 25.1953C22.1298 25.1549 22.4 24.859 22.4 24.5Z" fill="#E1000F"/>
<path d="M21.7 26.6C22.0866 26.6 22.4 26.9135 22.4 27.3001C22.4 27.659 22.1298 27.9549 21.7817 27.9953L21.7 28H17.5C17.1134 28 16.8 27.6866 16.8 27.3001C16.8 26.9411 17.0703 26.6452 17.4184 26.6048L17.5 26.6H21.7Z" fill="#E1000F"/>
<path d="M39.2 24.5C39.2 24.1135 38.8866 23.8001 38.5 23.8001H34.3L34.2184 23.8048C33.8702 23.8452 33.6 24.1411 33.6 24.5C33.6 24.8866 33.9134 25.2001 34.3 25.2001H38.5L38.5817 25.1953C38.9298 25.1549 39.2 24.859 39.2 24.5Z" fill="#E1000F"/>
<path d="M38.5 26.6C38.8866 26.6 39.2 26.9135 39.2 27.3001C39.2 27.659 38.9298 27.9549 38.5817 27.9953L38.5 28H34.3C33.9134 28 33.6 27.6866 33.6 27.3001C33.6 26.9411 33.8702 26.6452 34.2184 26.6048L34.3 26.6H38.5Z" fill="#E1000F"/>
<path d="M47.6 24.5C47.6 24.1135 47.2866 23.8001 46.9 23.8001H42.7L42.6184 23.8048C42.2702 23.8452 42 24.1411 42 24.5C42 24.8866 42.3134 25.2001 42.7 25.2001H46.9L46.9817 25.1953C47.3298 25.1549 47.6 24.859 47.6 24.5Z" fill="#E1000F"/>
<path d="M46.9 26.6C47.2866 26.6 47.6 26.9135 47.6 27.3001C47.6 27.659 47.3298 27.9549 46.9817 27.9953L46.9 28H42.7C42.3134 28 42 27.6866 42 27.3001C42 26.9411 42.2702 26.6452 42.6184 26.6048L42.7 26.6H46.9Z" fill="#E1000F"/>
<path d="M28.6953 6.91841C28.6549 6.57028 28.359 6.30005 28 6.30005C27.6134 6.30005 27.3 6.61345 27.3 7.00005V9.80005L27.3047 9.88168C27.3452 10.2298 27.641 10.5 28 10.5C28.3866 10.5 28.7 10.1866 28.7 9.80005V7.00005L28.6953 6.91841Z" fill="#000091"/>
<path d="M28.6953 11.8184C28.6549 11.4703 28.359 11.2 28 11.2C27.6134 11.2 27.3 11.5134 27.3 11.9V14H11.9L11.8184 14.0048C11.4703 14.0452 11.2 14.3411 11.2 14.7V18.2H2.10002L2.01839 18.2048C1.67025 18.2452 1.40002 18.5411 1.40002 18.9C1.40002 19.2866 1.71343 19.6 2.10002 19.6H53.9L53.9817 19.5953C54.3298 19.5549 54.6 19.259 54.6 18.9C54.6 18.5134 54.2866 18.2 53.9 18.2H44.8V14.7L44.7953 14.6184C44.7549 14.2703 44.459 14 44.1 14C43.7134 14 43.4 14.3134 43.4 14.7V18.2H12.6V15.4H37.1L37.1817 15.3953C37.5298 15.3549 37.8 15.059 37.8 14.7C37.8 14.3134 37.4866 14 37.1 14H28.7V11.9L28.6953 11.8184Z" fill="#000091"/>
<path d="M17.5 30.8C17.859 30.8 18.1549 31.0703 18.1953 31.4184L18.2 31.5V45.5C18.2 45.8866 17.8866 46.2 17.5 46.2C17.141 46.2 16.8452 45.9298 16.8047 45.5817L16.8 45.5V31.5C16.8 31.1134 17.1134 30.8 17.5 30.8Z" fill="#000091"/>
<path d="M15.3953 34.2184C15.3549 33.8703 15.059 33.6 14.7 33.6C14.3134 33.6 14 33.9135 14 34.3V47.6H8.40002V34.3L8.39532 34.2184C8.35488 33.8703 8.05901 33.6 7.70002 33.6C7.31342 33.6 7.00002 33.9135 7.00002 34.3V47.6H4.90002L4.81839 47.6048C4.47025 47.6452 4.20002 47.9411 4.20002 48.3C4.20002 48.6866 4.51343 49 4.90002 49H14.7C14.7483 49 14.7955 48.9952 14.8411 48.9858C15.1601 48.9206 15.4 48.6383 15.4 48.3V34.3L15.3953 34.2184Z" fill="#000091"/>
<path d="M10.5 30.8C10.859 30.8 11.1549 31.0703 11.1953 31.4184L11.2 31.5V42.7C11.2 43.0866 10.8866 43.4 10.5 43.4C10.141 43.4 9.84517 43.1298 9.80473 42.7817L9.80002 42.7V31.5C9.80002 31.1134 10.1134 30.8 10.5 30.8Z" fill="#000091"/>
<path d="M41.3 14C41.6866 14 42 14.3134 42 14.7C42 15.059 41.7298 15.3549 41.3817 15.3953L41.3 15.4H39.9C39.5134 15.4 39.2 15.0866 39.2 14.7C39.2 14.3411 39.4703 14.0452 39.8184 14.0048L39.9 14H41.3Z" fill="#000091"/>
<path d="M4.90002 21C5.25901 21 5.55488 21.2703 5.59531 21.6184L5.60002 21.7V45.5C5.60002 45.8866 5.28662 46.2 4.90002 46.2C4.54104 46.2 4.24517 45.9298 4.20473 45.5817L4.20002 45.5V21.7C4.20002 21.3134 4.51343 21 4.90002 21Z" fill="#000091"/>
<path fill-rule="evenodd" clip-rule="evenodd" d="M33.5953 34.2184C33.5549 33.8703 33.259 33.6 32.9 33.6H23.1L23.0184 33.6048C22.6703 33.6452 22.4 33.9411 22.4 34.3V44.8H20.3L20.2184 44.8048C19.8703 44.8452 19.6 45.1411 19.6 45.5C19.6 45.8866 19.9134 46.2 20.3 46.2H35.7L35.7817 46.1953C36.1298 46.1549 36.4 45.859 36.4 45.5C36.4 45.1134 36.0866 44.8 35.7 44.8H33.6V34.3L33.5953 34.2184ZM27.3 44.8H23.8V34.9993H32.2V44.8H28.7V38.5L28.6953 38.4184C28.6549 38.0703 28.359 37.8 28 37.8C27.6134 37.8 27.3 38.1134 27.3 38.5V44.8Z" fill="#000091"/>
<path d="M31.5 30.8C31.8866 30.8 32.2 31.1134 32.2 31.5C32.2 31.859 31.9298 32.1549 31.5817 32.1953L31.5 32.2H24.5C24.1134 32.2 23.8 31.8866 23.8 31.5C23.8 31.1411 24.0703 30.8452 24.4184 30.8048L24.5 30.8H31.5Z" fill="#000091"/>
<path d="M38.5 30.8C38.141 30.8 37.8452 31.0703 37.8047 31.4184L37.8 31.5V45.5C37.8 45.8866 38.1134 46.2 38.5 46.2C38.859 46.2 39.1549 45.9298 39.1953 45.5817L39.2 45.5V31.5C39.2 31.1134 38.8866 30.8 38.5 30.8Z" fill="#000091"/>
<path d="M40.6047 34.2184C40.6452 33.8703 40.941 33.6 41.3 33.6C41.6866 33.6 42 33.9135 42 34.3V42.7L41.9953 42.7817C41.9549 43.1298 41.659 43.4 41.3 43.4C40.9134 43.4 40.6 43.0866 40.6 42.7V34.3L40.6047 34.2184Z" fill="#000091"/>
<path d="M45.5 30.8C45.141 30.8 44.8452 31.0703 44.8047 31.4184L44.8 31.5V45.5C44.8 45.8866 45.1134 46.2 45.5 46.2C45.859 46.2 46.1549 45.9298 46.1953 45.5817L46.2 45.5V31.5C46.2 31.1134 45.8866 30.8 45.5 30.8Z" fill="#000091"/>
<path d="M47.6047 34.2184C47.6452 33.8703 47.941 33.6 48.3 33.6C48.6866 33.6 49 33.9135 49 34.3V48.3C49 48.3277 48.9984 48.3549 48.9953 48.3817C48.958 48.703 48.703 48.958 48.3817 48.9953C48.3549 48.9984 48.3277 49 48.3 49H17.5C17.1134 49 16.8 48.6866 16.8 48.3C16.8 47.9411 17.0703 47.6452 17.4184 47.6048L17.5 47.6H47.6V34.3L47.6047 34.2184Z" fill="#000091"/>
<path d="M51.1 21C51.459 21 51.7549 21.2703 51.7953 21.6184L51.8 21.7V48.3C51.8 48.6866 51.4866 49 51.1 49C50.741 49 50.4452 48.7298 50.4047 48.3817L50.4 48.3V21.7C50.4 21.3134 50.7134 21 51.1 21Z" fill="#000091"/>
</svg>
